<?xml version="1.0" standalone="no"?>
<!DOCTYPE svg PUBLIC "-//W3C//DTD SVG 20010904//EN"
 "http://www.w3.org/TR/2001/REC-SVG-20010904/DTD/svg10.dtd">
<svg version="1.0" xmlns="http://www.w3.org/2000/svg"
 width="512.000000pt" height="512.000000pt" viewBox="0 0 512.000000 512.000000"
 preserveAspectRatio="xMidYMid meet">
<metadata>
Created by potrace 1.16, written by Peter Selinger 2001-2019
</metadata>
<g transform="translate(0.000000,512.000000) scale(0.100000,-0.100000)"
fill="#000000" stroke="none">
<path d="M1280 4829 c-62 -28 -1220 -1181 -1256 -1251 -32 -63 -34 -169 -3
-231 26 -53 677 -709 734 -740 32 -17 57 -22 120 -22 101 0 134 17 235 119
l75 77 5 -1158 c5 -1148 5 -1158 26 -1203 26 -56 76 -107 129 -131 38 -18 98
-19 1215 -19 1117 0 1177 1 1215 19 53 24 103 75 129 131 21 45 21 55 26 1203
l5 1158 75 -77 c101 -102 134 -119 235 -119 58 0 89 5 115 19 19 10 187 170
374 355 377 375 386 386 386 501 0 43 -7 80 -21 110 -30 67 -1183 1222 -1254
1256 -49 23 -57 24 -306 24 l-255 0 -53 -26 c-28 -15 -64 -43 -79 -63 -136
-183 -333 -274 -592 -274 -259 0 -456 91 -592 274 -15 20 -51 48 -79 63 l-53
26 -255 0 c-235 0 -260 -2 -301 -21z"/>
</g>
</svg>
